<svg data-v-fde0c5aa="" xmlns="http://www.w3.org/2000/svg" viewBox="0 0 300 300" class="icon"><!----><defs data-v-fde0c5aa=""><!----></defs><rect data-v-fde0c5aa="" fill="transparent" x="0" y="0" width="300px" height="300px" class="logo-background-square"></rect><!----><defs data-v-fde0c5aa=""><linearGradient data-v-fde0c5aa="" gradientTransform="rotate(25)" id="7efc947a-b278-47d5-86c2-76fe186b2bfd" x1="0%" y1="0%" x2="100%" y2="0%"><stop data-v-fde0c5aa="" offset="0%" stop-color="#01648B" stop-opacity="1"></stop><stop data-v-fde0c5aa="" offset="100%" stop-color="#5BD0A4" stop-opacity="1"></stop></linearGradient></defs><g data-v-fde0c5aa="" id="3571523f-6af0-45c0-9470-d2ac756c4d36" fill="url(#7efc947a-b278-47d5-86c2-76fe186b2bfd)" stroke="none" transform="matrix(2.44418752097863,0,0,2.44418752097863,40,42.57796125013985)"><path d="M83.5 36.8c-3.7 0-6.6 2.9-6.6 6.6 0 1.4.5 2.8 1.3 3.8-2.9 2.9-7.3 6.1-12.6 6.4-6.3.3-12.7-3.4-19-11.2-7-8.7-14.3-12.9-21.8-12.4-6.6.4-11.9 4.2-15.2 7.5-.9-.4-1.8-.6-2.8-.6C3 36.8 0 39.7 0 43.4 0 47 3 50 6.6 50c3.7 0 6.6-2.9 6.6-6.6 0-1.4-.5-2.7-1.3-3.8 3-2.9 7.4-6.1 12.8-6.4 6.4-.4 12.8 3.4 19.1 11.2 6.7 8.3 13.7 12.5 20.8 12.5h1c6.5-.4 11.7-4.2 15-7.5.8.4 1.8.6 2.8.6 3.7 0 6.6-2.9 6.6-6.6.2-3.7-2.8-6.6-6.5-6.6z"></path><ellipse cx="24.4" cy="15" rx="6.6" ry="6.6"></ellipse><ellipse cx="63.7" cy="72.9" rx="6.6" ry="6.6"></ellipse></g><!----></svg>