<svg data-v-423bf9ae="" xmlns="http://www.w3.org/2000/svg" viewBox="0 0 713 90" class="iconLeftSlogan"><!----><!----><!----><g data-v-423bf9ae="" id="fe9526a6-7010-42ff-9db9-1b2b4f54233c" fill="white" transform="matrix(4.52488679972365,0,0,4.52488679972365,134.25278244659143,-17.601809523624595)"><path d="M3.57 14.52C6.05 14.52 7.53 12.77 7.53 11.09C7.53 9.56 6.54 8.81 5.04 8.47L4.42 8.33C3.75 8.18 3.37 7.94 3.37 7.38C3.37 6.69 4.00 6.22 5.01 6.22C6.01 6.22 6.52 6.47 6.97 7.08L8.44 5.77C7.77 4.87 6.55 4.41 5.10 4.41C2.84 4.41 1.33 5.78 1.33 7.56C1.33 9.13 2.24 9.86 3.67 10.16L4.31 10.30C4.94 10.44 5.43 10.72 5.43 11.31C5.43 12.12 4.75 12.71 3.57 12.71C2.56 12.71 1.96 12.33 1.48 11.56L-0.07 12.78C0.64 14.06 1.95 14.52 3.57 14.52ZM7.84 17.15L9.80 17.15L10.61 13.08L10.68 13.08C10.78 13.87 11.49 14.52 12.52 14.52C14.39 14.52 15.93 12.50 15.93 9.38C15.93 7.91 15.34 6.83 13.97 6.83C12.82 6.83 12.15 7.52 11.58 8.71L11.49 8.71L11.83 7.00L9.87 7.00ZM12.04 12.91C11.23 12.91 10.74 12.43 10.89 11.69L11.12 10.57C11.23 10.02 11.48 9.49 11.79 9.11C12.08 8.75 12.50 8.44 13.01 8.44C13.58 8.44 13.93 8.83 13.93 9.49C13.93 9.72 13.89 10.09 13.85 10.29L13.65 11.27C13.43 12.38 12.91 12.91 12.04 12.91ZM19.91 14.52C21.17 14.52 22.13 14.07 23.04 12.87L21.84 11.91C21.18 12.74 20.69 12.94 20.05 12.94C19.08 12.94 18.75 12.46 18.75 11.76C18.75 11.69 18.75 11.61 18.77 11.44C22.06 11.34 23.42 10.39 23.42 8.88C23.42 7.28 21.90 6.83 20.79 6.83C18.35 6.83 16.80 9.00 16.80 11.35C16.80 13.30 17.82 14.52 19.91 14.52ZM20.68 8.33C21.03 8.33 21.52 8.44 21.52 9.07C21.52 9.66 21.08 10.07 18.98 10.19L19.04 9.87C19.21 8.92 19.85 8.33 20.68 8.33ZM26.89 14.52C28.29 14.52 29.37 13.83 30.02 12.47L28.52 11.77C28.11 12.47 27.82 12.94 27.06 12.94C26.29 12.94 25.96 12.47 25.96 11.79C25.96 11.59 25.98 11.40 26.03 11.20L26.28 9.95C26.49 8.92 26.98 8.41 27.80 8.41C28.52 8.41 28.73 8.79 28.90 9.37L30.55 8.74C30.37 7.59 29.32 6.83 27.92 6.83C25.69 6.83 24.01 8.72 24.01 11.34C24.01 13.62 25.30 14.52 26.89 14.52ZM34.27 14.35L34.58 12.78L33.24 12.78L34.08 8.57L35.56 8.57L35.88 7.00L34.40 7.00L34.79 5.01L32.97 5.01L32.72 6.26C32.62 6.76 32.49 7.00 31.89 7.00L31.40 7.00L31.09 8.57L32.13 8.57L31.37 12.36C31.33 12.57 31.32 12.82 31.32 12.96C31.32 13.89 31.91 14.35 33.04 14.35ZM37.60 14.35L38.37 10.49C38.61 9.30 39.23 8.90 40.47 8.90L40.96 8.90L41.36 7.00L41.01 7.00C39.87 7.00 39.12 8.04 38.81 8.83L38.71 8.83L39.07 7.00L37.11 7.00L35.64 14.35ZM42.56 7.00L41.65 11.55C41.58 11.93 41.52 12.25 41.52 12.61C41.52 13.82 42.15 14.52 43.26 14.52C44.38 14.52 45.08 13.79 45.63 12.64L45.71 12.64L45.67 12.85C45.65 12.92 45.63 13.12 45.63 13.27C45.63 13.96 46.16 14.35 46.86 14.35L48.16 14.35L48.47 12.78L47.64 12.78L48.80 7.00L46.84 7.00L46.09 10.78C45.98 11.34 45.74 11.82 45.42 12.21C45.09 12.60 44.72 12.88 44.24 12.88C43.76 12.88 43.55 12.59 43.55 12.11C43.55 11.90 43.60 11.63 43.65 11.37L44.52 7.00ZM51.27 14.35L52.02 10.57C52.14 10.01 52.37 9.53 52.70 9.14C53.02 8.75 53.40 8.47 53.87 8.47C54.35 8.47 54.53 8.76 54.53 9.23C54.53 9.45 54.49 9.72 54.43 9.98L53.56 14.35L55.52 14.35L56.28 10.57C56.38 10.07 56.64 9.51 56.95 9.13C57.26 8.75 57.67 8.47 58.10 8.47C58.53 8.47 58.72 8.76 58.72 9.21C58.72 9.45 58.66 9.72 58.60 9.98L58.03 12.89C58.02 12.96 57.99 13.12 57.99 13.29C57.99 13.94 58.42 14.35 59.16 14.35L60.44 14.35L60.75 12.78L60.00 12.78L60.56 9.97C60.65 9.53 60.73 9.13 60.73 8.69C60.73 7.55 60.14 6.83 59.07 6.83C57.89 6.83 57.18 7.62 56.63 8.71L56.56 8.71C56.55 7.53 55.94 6.83 54.85 6.83C53.73 6.83 53.03 7.56 52.49 8.71L52.40 8.71L52.74 7.00L50.78 7.00L49.31 14.35ZM71.43 14.35L71.79 12.56L67.40 12.56L67.84 10.30L71.60 10.30L71.96 8.51L68.21 8.51L68.64 6.37L72.88 6.37L73.25 4.58L66.96 4.58L65.00 14.35ZM76.61 8.57L78.05 8.57L78.36 7.00L76.93 7.00L77.21 5.56L78.55 5.56L78.89 3.99L77.83 3.99C76.30 3.99 75.42 4.70 75.14 6.09L74.96 7.00L73.99 7.00L73.68 8.57L74.65 8.57L73.25 15.58L71.90 15.58L71.57 17.15L72.63 17.15C74.16 17.15 75.04 16.44 75.32 15.05ZM81.55 8.57L82.99 8.57L83.30 7.00L81.87 7.00L82.15 5.56L83.50 5.56L83.83 3.99L82.77 3.99C81.24 3.99 80.36 4.70 80.08 6.09L79.90 7.00L78.93 7.00L78.62 8.57L79.59 8.57L78.19 15.58L76.85 15.58L76.51 17.15L77.57 17.15C79.10 17.15 79.98 16.44 80.26 15.05ZM85.50 6.19C86.44 6.19 86.72 5.67 86.84 5.18C86.88 5.01 86.93 4.79 86.93 4.62C86.93 4.17 86.60 3.89 85.92 3.89C84.98 3.89 84.70 4.41 84.57 4.90C84.53 5.07 84.49 5.29 84.49 5.46C84.49 5.91 84.81 6.19 85.50 6.19ZM85.65 14.35L85.96 12.78L85.13 12.78L86.30 7.00L84.34 7.00L83.16 12.88C83.13 13.02 83.12 13.12 83.12 13.23C83.12 13.90 83.62 14.35 84.38 14.35ZM89.92 14.52C91.32 14.52 92.40 13.83 93.04 12.47L91.55 11.77C91.14 12.47 90.85 12.94 90.09 12.94C89.32 12.94 88.98 12.47 88.98 11.79C88.98 11.59 89.01 11.40 89.05 11.20L89.31 9.95C89.52 8.92 90.01 8.41 90.83 8.41C91.55 8.41 91.76 8.79 91.92 9.37L93.58 8.74C93.39 7.59 92.34 6.83 90.94 6.83C88.72 6.83 87.04 8.72 87.04 11.34C87.04 13.62 88.33 14.52 89.92 14.52ZM96.35 6.19C97.29 6.19 97.57 5.67 97.69 5.18C97.73 5.01 97.78 4.79 97.78 4.62C97.78 4.17 97.45 3.89 96.77 3.89C95.83 3.89 95.55 4.41 95.42 4.90C95.38 5.07 95.34 5.29 95.34 5.46C95.34 5.91 95.66 6.19 96.35 6.19ZM96.50 14.35L96.81 12.78L95.98 12.78L97.15 7.00L95.19 7.00L94.01 12.88C93.98 13.02 93.97 13.12 93.97 13.23C93.97 13.90 94.47 14.35 95.23 14.35ZM101.00 14.52C102.26 14.52 103.22 14.07 104.13 12.87L102.93 11.91C102.27 12.74 101.78 12.94 101.14 12.94C100.17 12.94 99.83 12.46 99.83 11.76C99.83 11.69 99.83 11.61 99.86 11.44C103.15 11.34 104.51 10.39 104.51 8.88C104.51 7.28 102.98 6.83 101.88 6.83C99.44 6.83 97.89 9.00 97.89 11.35C97.89 13.30 98.91 14.52 101.00 14.52ZM101.77 8.33C102.12 8.33 102.61 8.44 102.61 9.07C102.61 9.66 102.17 10.07 100.07 10.19L100.13 9.87C100.30 8.92 100.94 8.33 101.77 8.33ZM106.82 14.35L107.58 10.57C107.69 10.01 107.94 9.53 108.28 9.14C108.60 8.76 108.99 8.47 109.47 8.47C110.00 8.47 110.21 8.78 110.21 9.20C110.21 9.48 110.17 9.72 110.11 9.98L109.54 12.89C109.52 12.96 109.49 13.12 109.49 13.29C109.49 13.94 109.93 14.35 110.67 14.35L111.94 14.35L112.25 12.78L111.51 12.78L112.11 9.77C112.18 9.39 112.24 9.09 112.24 8.74C112.24 7.53 111.61 6.83 110.47 6.83C109.33 6.83 108.60 7.53 108.04 8.71L107.95 8.71L108.29 7.00L106.33 7.00L104.86 14.35ZM116.21 14.52C117.61 14.52 118.69 13.83 119.34 12.47L117.84 11.77C117.43 12.47 117.14 12.94 116.38 12.94C115.61 12.94 115.28 12.47 115.28 11.79C115.28 11.59 115.30 11.40 115.35 11.20L115.60 9.95C115.81 8.92 116.30 8.41 117.12 8.41C117.84 8.41 118.05 8.79 118.22 9.37L119.87 8.74C119.69 7.59 118.64 6.83 117.24 6.83C115.01 6.83 113.33 8.72 113.33 11.34C113.33 13.62 114.62 14.52 116.21 14.52ZM124.35 9.77L123.12 12.52L123.03 12.52L122.81 9.77L122.53 7.00L120.58 7.00L121.62 14.77L121.23 15.58L119.87 15.58L119.55 17.15L120.64 17.15C122.04 17.15 122.67 16.62 123.24 15.54L127.75 7.00L125.66 7.00Z"></path></g><!----><g data-v-423bf9ae="" id="820b1086-8540-4f00-8e5b-33fe982ced72" transform="matrix(1.265822811975982,0,0,1.265822811975982,0.0319858348644928,-10.232911519194893)" stroke="none" fill="white"><path d="M83.5 36.8c-3.7 0-6.6 2.9-6.6 6.6 0 1.4.5 2.8 1.3 3.8-2.9 2.9-7.3 6.1-12.6 6.4-6.3.3-12.7-3.4-19-11.2-7-8.7-14.3-12.9-21.8-12.4-6.6.4-11.9 4.2-15.2 7.5-.9-.4-1.8-.6-2.8-.6C3 36.8 0 39.7 0 43.4 0 47 3 50 6.6 50c3.7 0 6.6-2.9 6.6-6.6 0-1.4-.5-2.7-1.3-3.8 3-2.9 7.4-6.1 12.8-6.4 6.4-.4 12.8 3.4 19.1 11.2 6.7 8.3 13.7 12.5 20.8 12.5h1c6.5-.4 11.7-4.2 15-7.5.8.4 1.8.6 2.8.6 3.7 0 6.6-2.9 6.6-6.6.2-3.7-2.8-6.6-6.5-6.6z"></path><ellipse cx="24.4" cy="15" rx="6.6" ry="6.6"></ellipse><ellipse cx="63.7" cy="72.9" rx="6.6" ry="6.6"></ellipse></g><!----><g data-v-423bf9ae="" id="6633cf6d-561b-4899-b28f-2b26e843e48d" fill="white" transform="matrix(0.4890156493156593,0,0,0.4890156493156593,133.38344240341638,58.973068893978414)"><path d="M2.18 7.92L5.40 7.92L7.64 11.48L8.89 11.48L6.45 7.74C7.49 7.50 8.69 6.90 8.69 5.11C8.69 3.35 7.48 2.21 5.57 2.21L1.13 2.21L1.13 11.48L2.18 11.48ZM2.18 3.21L5.45 3.21C6.76 3.21 7.64 3.93 7.64 5.11C7.64 6.55 6.38 6.93 5.39 6.93L2.18 6.93ZM21.66 2.21L20.34 2.21L16.41 11.48L17.57 11.48L18.70 8.79L23.30 8.79L24.43 11.48L25.59 11.48ZM19.11 7.83L21 3.30L22.89 7.83ZM37.67 2.21L33.77 2.21L33.77 11.48L37.67 11.48C39.89 11.48 41.93 9.74 41.93 6.85C41.93 3.95 39.89 2.21 37.67 2.21ZM37.63 10.49L34.82 10.49L34.82 3.21L37.63 3.21C39.61 3.21 40.88 4.86 40.88 6.85C40.88 8.83 39.61 10.49 37.63 10.49ZM51.67 2.21L50.62 2.21L50.62 11.48L51.67 11.48ZM65.06 2.10C62.24 2.10 60.35 4.21 60.35 6.85C60.35 9.48 62.24 11.59 65.06 11.59C67.87 11.59 69.76 9.48 69.76 6.85C69.76 4.21 67.87 2.10 65.06 2.10ZM65.06 10.57C62.80 10.57 61.40 8.93 61.40 6.85C61.40 4.76 62.80 3.12 65.06 3.12C67.31 3.12 68.71 4.76 68.71 6.85C68.71 8.93 67.31 10.57 65.06 10.57ZM95.12 3.22L95.12 2.21L88.42 2.21L88.42 11.48L89.47 11.48L89.47 7.46L94.50 7.46L94.50 6.44L89.47 6.44L89.47 3.22ZM104.64 7.92L107.86 7.92L110.10 11.48L111.34 11.48L108.91 7.74C109.94 7.50 111.15 6.90 111.15 5.11C111.15 3.35 109.93 2.21 108.02 2.21L103.59 2.21L103.59 11.48L104.64 11.48ZM104.64 3.21L107.90 3.21C109.21 3.21 110.10 3.93 110.10 5.11C110.10 6.55 108.84 6.93 107.84 6.93L104.64 6.93ZM126.77 3.22L126.77 2.21L119.95 2.21L119.95 11.48L126.77 11.48L126.77 10.47L121.00 10.47L121.00 7.35L126.15 7.35L126.15 6.33L121.00 6.33L121.00 3.22ZM144.21 12.15C143.72 12.54 143.19 12.78 142.52 12.78C141.23 12.78 140.56 12.03 140.28 11.51C142.58 11.13 144.12 9.20 144.12 6.85C144.12 4.21 142.23 2.10 139.41 2.10C136.60 2.10 134.71 4.21 134.71 6.85C134.71 9.42 136.51 11.48 139.22 11.58C139.82 12.82 141.12 13.68 142.51 13.68C143.40 13.68 144.12 13.43 144.77 12.91ZM139.41 10.57C137.16 10.57 135.76 8.93 135.76 6.85C135.76 4.76 137.16 3.12 139.41 3.12C141.67 3.12 143.07 4.76 143.07 6.85C143.07 8.93 141.67 10.57 139.41 10.57ZM159.52 2.21L159.52 7.52C159.52 9.67 158.09 10.57 156.62 10.57C155.15 10.57 153.73 9.67 153.73 7.52L153.73 2.21L152.68 2.21L152.68 7.49C152.68 9.95 154.31 11.59 156.62 11.59C158.94 11.59 160.57 9.94 160.57 7.49L160.57 2.21ZM176.54 3.22L176.54 2.21L169.72 2.21L169.72 11.48L176.54 11.48L176.54 10.47L170.77 10.47L170.77 7.35L175.92 7.35L175.92 6.33L170.77 6.33L170.77 3.22ZM192.18 2.21L192.18 10.01L186.45 2.21L185.23 2.21L185.23 11.48L186.28 11.48L186.28 3.65L192.01 11.48L193.23 11.48L193.23 2.21ZM206.47 10.57C204.22 10.57 202.96 8.93 202.96 6.85C202.96 4.76 204.22 3.12 206.47 3.12C208.00 3.12 209.01 3.85 209.48 4.98L210.59 4.98C210.00 3.29 208.49 2.10 206.39 2.10C203.60 2.10 201.91 4.21 201.91 6.85C201.91 9.48 203.60 11.59 206.39 11.59C208.49 11.59 210.00 10.40 210.59 8.71L209.48 8.71C209.01 9.84 208.00 10.57 206.47 10.57ZM222.80 7.81L226.67 2.21L225.40 2.21L222.26 6.72L219.13 2.21L217.85 2.21L221.75 7.81L221.75 11.48L222.80 11.48ZM245.41 4.65C245.41 4.03 245.77 3.08 247.87 3.08C249.56 3.08 250.35 3.82 250.46 4.75L251.54 4.75C251.45 3.36 250.33 2.10 247.87 2.10C245.55 2.10 244.38 3.15 244.38 4.66C244.38 7.84 250.73 6.69 250.73 8.96C250.73 10.05 249.75 10.60 248.18 10.60C246.57 10.60 245.27 10.05 245.20 8.71L244.10 8.71C244.24 10.37 245.36 11.59 248.11 11.59C250.39 11.59 251.78 10.64 251.78 8.92C251.78 5.68 245.41 6.80 245.41 4.65ZM261.45 8.18L264.57 8.18C266.55 8.18 267.76 7.03 267.76 5.19C267.76 3.37 266.55 2.21 264.57 2.21L260.40 2.21L260.40 11.48L261.45 11.48ZM264.50 3.21C265.96 3.21 266.71 3.96 266.71 5.19C266.71 6.44 265.96 7.20 264.50 7.20L261.45 7.20L261.45 3.21ZM283.01 3.22L283.01 2.21L276.19 2.21L276.19 11.48L283.01 11.48L283.01 10.47L277.24 10.47L277.24 7.35L282.39 7.35L282.39 6.33L277.24 6.33L277.24 3.22ZM295.51 10.57C293.26 10.57 292.00 8.93 292.00 6.85C292.00 4.76 293.26 3.12 295.51 3.12C297.04 3.12 298.05 3.85 298.52 4.98L299.63 4.98C299.04 3.29 297.53 2.10 295.43 2.10C292.64 2.10 290.95 4.21 290.95 6.85C290.95 9.48 292.64 11.59 295.43 11.59C297.53 11.59 299.04 10.40 299.63 8.71L298.52 8.71C298.05 9.84 297.04 10.57 295.51 10.57ZM314.69 2.21L307.17 2.21L307.17 3.22L310.41 3.22L310.41 11.48L311.46 11.48L311.46 3.22L314.69 3.22ZM324.07 7.92L327.29 7.92L329.53 11.48L330.78 11.48L328.34 7.74C329.38 7.50 330.58 6.90 330.58 5.11C330.58 3.35 329.36 2.21 327.46 2.21L323.02 2.21L323.02 11.48L324.07 11.48ZM324.07 3.21L327.33 3.21C328.65 3.21 329.53 3.93 329.53 5.11C329.53 6.55 328.27 6.93 327.28 6.93L324.07 6.93ZM346.11 2.21L346.11 7.52C346.11 9.67 344.68 10.57 343.21 10.57C341.74 10.57 340.33 9.67 340.33 7.52L340.33 2.21L339.28 2.21L339.28 7.49C339.28 9.95 340.90 11.59 343.21 11.59C345.53 11.59 347.16 9.94 347.16 7.49L347.16 2.21ZM364.11 2.21L360.85 6.61L357.53 2.21L356.31 2.21L356.31 11.48L357.36 11.48L357.36 3.81L360.85 8.22L364.28 3.81L364.28 11.48L365.33 11.48L365.33 2.21ZM392.38 2.21L389.12 6.61L385.80 2.21L384.58 2.21L384.58 11.48L385.63 11.48L385.63 3.81L389.12 8.22L392.55 3.81L392.55 11.48L393.60 11.48L393.60 2.21ZM407.02 2.21L405.71 2.21L401.77 11.48L402.93 11.48L404.07 8.79L408.66 8.79L409.79 11.48L410.96 11.48ZM404.47 7.83L406.36 3.30L408.25 7.83ZM426.08 2.21L426.08 10.01L420.35 2.21L419.13 2.21L419.13 11.48L420.18 11.48L420.18 3.65L425.91 11.48L427.13 11.48L427.13 2.21ZM440.55 2.21L439.24 2.21L435.30 11.48L436.46 11.48L437.60 8.79L442.19 8.79L443.32 11.48L444.49 11.48ZM438.00 7.83L439.89 3.30L441.78 7.83ZM456.46 2.10C453.67 2.10 451.89 4.21 451.89 6.85C451.89 9.48 453.60 11.59 456.43 11.59C458.11 11.59 459.20 10.74 459.79 9.84L459.79 11.48L460.75 11.48L460.75 6.55L456.40 6.55L456.40 7.50L459.79 7.50C459.79 9.44 458.19 10.57 456.51 10.57C454.26 10.57 452.94 8.93 452.94 6.85C452.94 4.76 454.29 3.12 456.54 3.12C457.95 3.12 458.96 3.74 459.52 4.73L460.67 4.73C459.98 3.18 458.44 2.10 456.46 2.10ZM476.42 3.22L476.42 2.21L469.60 2.21L469.60 11.48L476.42 11.48L476.42 10.47L470.65 10.47L470.65 7.35L475.80 7.35L475.80 6.33L470.65 6.33L470.65 3.22ZM492.91 2.21L489.65 6.61L486.33 2.21L485.11 2.21L485.11 11.48L486.16 11.48L486.16 3.81L489.65 8.22L493.08 3.81L493.08 11.48L494.13 11.48L494.13 2.21ZM510.22 3.22L510.22 2.21L503.40 2.21L503.40 11.48L510.22 11.48L510.22 10.47L504.45 10.47L504.45 7.35L509.60 7.35L509.60 6.33L504.45 6.33L504.45 3.22ZM525.85 2.21L525.85 10.01L520.13 2.21L518.91 2.21L518.91 11.48L519.96 11.48L519.96 3.65L525.69 11.48L526.90 11.48L526.90 2.21ZM542.75 2.21L535.23 2.21L535.23 3.22L538.47 3.22L538.47 11.48L539.52 11.48L539.52 3.22L542.75 3.22ZM567.78 2.21L567.78 7.52C567.78 9.67 566.36 10.57 564.89 10.57C563.42 10.57 562.00 9.67 562.00 7.52L562.00 2.21L560.95 2.21L560.95 7.49C560.95 9.95 562.58 11.59 564.89 11.59C567.21 11.59 568.83 9.94 568.83 7.49L568.83 2.21ZM584.93 2.21L584.93 10.01L579.21 2.21L577.99 2.21L577.99 11.48L579.04 11.48L579.04 3.65L584.77 11.48L585.98 11.48L585.98 2.21ZM595.25 2.21L595.25 11.48L601.36 11.48L601.36 10.47L596.30 10.47L596.30 2.21ZM616.53 3.22L616.53 2.21L609.71 2.21L609.71 11.48L616.53 11.48L616.53 10.47L610.76 10.47L610.76 7.35L615.92 7.35L615.92 6.33L610.76 6.33L610.76 3.22ZM629.38 2.21L628.07 2.21L624.13 11.48L625.30 11.48L626.43 8.79L631.02 8.79L632.16 11.48L633.32 11.48ZM626.84 7.83L628.73 3.30L630.62 7.83ZM642.11 4.65C642.11 4.03 642.47 3.08 644.57 3.08C646.27 3.08 647.05 3.82 647.16 4.75L648.24 4.75C648.16 3.36 647.04 2.10 644.57 2.10C642.25 2.10 641.09 3.15 641.09 4.66C641.09 7.84 647.43 6.69 647.43 8.96C647.43 10.05 646.45 10.60 644.88 10.60C643.27 10.60 641.97 10.05 641.90 8.71L640.81 8.71C640.95 10.37 642.07 11.59 644.81 11.59C647.09 11.59 648.48 10.64 648.48 8.92C648.48 5.68 642.11 6.80 642.11 4.65ZM663.54 2.21L663.54 6.33L658.15 6.33L658.15 2.21L657.10 2.21L657.10 11.48L658.15 11.48L658.15 7.35L663.54 7.35L663.54 11.48L664.59 11.48L664.59 2.21ZM689.68 6.75C690.34 6.45 690.93 5.85 690.93 4.66C690.93 3.54 690.19 2.21 688.00 2.21L683.84 2.21L683.84 11.48L688.24 11.48C690.35 11.48 691.40 10.43 691.40 9.04C691.40 7.66 690.47 7 689.68 6.75ZM684.89 3.21L688.11 3.21C689.39 3.21 689.88 3.98 689.88 4.75C689.88 5.88 688.97 6.36 688.00 6.36L684.89 6.36ZM688.35 10.49L684.89 10.49L684.89 7.31L688.24 7.31C689.71 7.31 690.35 8.09 690.35 8.96C690.35 9.93 689.63 10.49 688.35 10.49ZM703.54 7.81L707.42 2.21L706.15 2.21L703.01 6.72L699.87 2.21L698.60 2.21L702.49 7.81L702.49 11.48L703.54 11.48ZM729.44 2.21L725.54 2.21L725.54 11.48L729.44 11.48C731.65 11.48 733.70 9.74 733.70 6.85C733.70 3.95 731.65 2.21 729.44 2.21ZM729.40 10.49L726.59 10.49L726.59 3.21L729.40 3.21C731.37 3.21 732.65 4.86 732.65 6.85C732.65 8.83 731.37 10.49 729.40 10.49ZM746.37 2.21L745.05 2.21L741.12 11.48L742.28 11.48L743.41 8.79L748.01 8.79L749.14 11.48L750.30 11.48ZM743.82 7.83L745.71 3.30L747.60 7.83ZM764.23 2.21L756.71 2.21L756.71 3.22L759.95 3.22L759.95 11.48L761.00 11.48L761.00 3.22L764.23 3.22ZM775.89 2.21L774.58 2.21L770.64 11.48L771.81 11.48L772.94 8.79L777.53 8.79L778.67 11.48L779.83 11.48ZM773.35 7.83L775.24 3.30L777.13 7.83ZM802.14 2.21L800.83 2.21L796.89 11.48L798.06 11.48L799.19 8.79L803.78 8.79L804.92 11.48L806.08 11.48ZM799.60 7.83L801.49 3.30L803.38 7.83ZM820.64 2.21L820.64 7.52C820.64 9.67 819.21 10.57 817.74 10.57C816.27 10.57 814.86 9.67 814.86 7.52L814.86 2.21L813.81 2.21L813.81 7.49C813.81 9.95 815.43 11.59 817.74 11.59C820.06 11.59 821.69 9.94 821.69 7.49L821.69 2.21ZM837.42 2.21L829.91 2.21L829.91 3.22L833.14 3.22L833.14 11.48L834.19 11.48L834.19 3.22L837.42 3.22ZM849.48 2.10C846.66 2.10 844.77 4.21 844.77 6.85C844.77 9.48 846.66 11.59 849.48 11.59C852.29 11.59 854.18 9.48 854.18 6.85C854.18 4.21 852.29 2.10 849.48 2.10ZM849.48 10.57C847.22 10.57 845.82 8.93 845.82 6.85C845.82 4.76 847.22 3.12 849.48 3.12C851.73 3.12 853.13 4.76 853.13 6.85C853.13 8.93 851.73 10.57 849.48 10.57ZM870.66 2.21L867.40 6.61L864.08 2.21L862.86 2.21L862.86 11.48L863.91 11.48L863.91 3.81L867.40 8.22L870.83 3.81L870.83 11.48L871.88 11.48L871.88 2.21ZM885.30 2.21L883.99 2.21L880.05 11.48L881.22 11.48L882.35 8.79L886.94 8.79L888.08 11.48L889.24 11.48ZM882.76 7.83L884.65 3.30L886.54 7.83ZM903.17 2.21L895.65 2.21L895.65 3.22L898.88 3.22L898.88 11.48L899.93 11.48L899.93 3.22L903.17 3.22ZM912.55 2.21L911.50 2.21L911.50 11.48L912.55 11.48ZM925.93 2.10C923.12 2.10 921.23 4.21 921.23 6.85C921.23 9.48 923.12 11.59 925.93 11.59C928.75 11.59 930.64 9.48 930.64 6.85C930.64 4.21 928.75 2.10 925.93 2.10ZM925.93 10.57C923.68 10.57 922.28 8.93 922.28 6.85C922.28 4.76 923.68 3.12 925.93 3.12C928.19 3.12 929.59 4.76 929.59 6.85C929.59 8.93 928.19 10.57 925.93 10.57ZM946.26 2.21L946.26 10.01L940.53 2.21L939.32 2.21L939.32 11.48L940.37 11.48L940.37 3.65L946.09 11.48L947.31 11.48L947.31 2.21Z"></path></g></svg>