<svg data-v-423bf9ae="" xmlns="http://www.w3.org/2000/svg" viewBox="0 0 75.95735222018068 60" class="icon"><!----><!----><!----><!----><g data-v-423bf9ae="" id="e16f7c7d-6ab2-4a90-af6e-f32b7264cdbd" transform="matrix(0.8438818746506548,0,0,0.8438818746506548,2.0903197395227835e-7,-7.088607425150116)" stroke="none" fill="black"><path d="M83.5 36.8c-3.7 0-6.6 2.9-6.6 6.6 0 1.4.5 2.8 1.3 3.8-2.9 2.9-7.3 6.1-12.6 6.4-6.3.3-12.7-3.4-19-11.2-7-8.7-14.3-12.9-21.8-12.4-6.6.4-11.9 4.2-15.2 7.5-.9-.4-1.8-.6-2.8-.6C3 36.8 0 39.7 0 43.4 0 47 3 50 6.6 50c3.7 0 6.6-2.9 6.6-6.6 0-1.4-.5-2.7-1.3-3.8 3-2.9 7.4-6.1 12.8-6.4 6.4-.4 12.8 3.4 19.1 11.2 6.7 8.3 13.7 12.5 20.8 12.5h1c6.5-.4 11.7-4.2 15-7.5.8.4 1.8.6 2.8.6 3.7 0 6.6-2.9 6.6-6.6.2-3.7-2.8-6.6-6.5-6.6z"></path><ellipse cx="24.4" cy="15" rx="6.6" ry="6.6"></ellipse><ellipse cx="63.7" cy="72.9" rx="6.6" ry="6.6"></ellipse></g><!----></svg>